<svg width="18" height="21" viewBox="0 0 18 21" fill="none" xmlns="http://www.w3.org/2000/svg">
<path d="M0 21C0 16.5817 4.02943 13 9 13C13.9706 13 18 16.5817 18 21H15.75C15.75 17.6863 12.7279 15 9 15C5.27208 15 2.25 17.6863 2.25 21H0ZM9 12C5.27062 12 2.25 9.315 2.25 6C2.25 2.685 5.27062 0 9 0C12.7294 0 15.75 2.685 15.75 6C15.75 9.315 12.7294 12 9 12ZM9 10C11.4862 10 13.5 8.21 13.5 6C13.5 3.79 11.4862 2 9 2C6.51375 2 4.5 3.79 4.5 6C4.5 8.21 6.51375 10 9 10Z" fill="url(#paint0_linear_14_108)"/>
<defs>
<linearGradient id="paint0_linear_14_108" x1="9" y1="0" x2="9" y2="21" gradientUnits="userSpaceOnUse">
<stop stop-color="#2B67E0"/>
<stop offset="1" stop-color="#33D0CE"/>
</linearGradient>
</defs>
</svg>
