<svg width="20" height="20" viewBox="0 0 20 20" fill="none" xmlns="http://www.w3.org/2000/svg">
<path d="M7.07284 8.53567C8.11333 10.3653 9.63467 11.8867 11.4643 12.9271L12.4471 11.5512C12.7739 11.0939 13.3907 10.9526 13.884 11.222C15.4471 12.0759 17.1746 12.5948 18.9766 12.7374C19.5544 12.7832 20 13.2654 20 13.8451V18.8038C20 19.3734 19.5691 19.8508 19.0024 19.909C18.4137 19.9696 17.8197 20 17.2222 20C7.71066 20 0 12.2893 0 2.77778C0 2.1803 0.0304668 1.58634 0.090989 0.997511C0.149222 0.430833 0.6266 0 1.19628 0H6.15491C6.73456 0 7.21681 0.4456 7.26256 1.02343C7.40519 2.82542 7.92411 4.55293 8.778 6.11605C9.04744 6.60933 8.90611 7.22616 8.44878 7.55286L7.07284 8.53567ZM4.27139 7.80578L6.38244 6.29788C5.78386 5.00571 5.37364 3.63537 5.16363 2.22222H2.2323C2.22559 2.40702 2.22222 2.59222 2.22222 2.77778C2.22222 11.062 8.938 17.7778 17.2222 17.7778C17.4078 17.7778 17.593 17.7744 17.7778 17.7677V14.8363C16.3647 14.6263 14.9943 14.2161 13.7021 13.6176L12.1942 15.7287C11.5842 15.4917 10.9951 15.2128 10.4304 14.8957L10.3659 14.8589C8.18856 13.6208 6.37927 11.8114 5.14111 9.63411L5.10438 9.56956C4.78721 9.00489 4.50838 8.41578 4.27139 7.80578Z" fill="url(#paint0_linear_14_162)"/>
<defs>
<linearGradient id="paint0_linear_14_162" x1="10" y1="0" x2="10" y2="20" gradientUnits="userSpaceOnUse">
<stop stop-color="#2B67E0"/>
<stop offset="1" stop-color="#33D0CE"/>
</linearGradient>
</defs>
</svg>
