<svg width="1440" height="1024" viewBox="0 0 1440 1024" fill="none" xmlns="http://www.w3.org/2000/svg">
<g clip-path="url(#clip0_104_29)">
<rect width="1440" height="1024" fill="white"/>
<rect width="1440" height="1024" fill="#4F5DA6"/>
<path d="M427 235.945C436.281 235.945 444.672 237.445 452.172 240.445C459.719 243.398 466.164 247.523 471.508 252.82C476.852 258.117 480.977 264.422 483.883 271.734C486.789 279.047 488.242 287.039 488.242 295.711C488.242 301.289 487.703 306.68 486.625 311.883C485.547 317.086 484 321.984 481.984 326.578C479.969 331.172 477.484 335.367 474.531 339.164C471.625 342.961 468.32 346.242 464.617 349.008C460.961 351.727 456.93 353.836 452.523 355.336C448.164 356.836 443.5 357.586 438.531 357.586C433.469 357.586 428.359 357.117 423.203 356.18C418.047 355.242 412.938 354.234 407.875 353.156C406.141 354.141 404.359 354.984 402.531 355.688C400.703 356.438 398.875 357.047 397.047 357.516C395.219 358.031 393.414 358.406 391.633 358.641C389.898 358.922 388.258 359.062 386.711 359.062C382.023 359.062 378.461 358.523 376.023 357.445C373.539 356.367 372.297 354.75 372.297 352.594C372.297 351.328 372.648 350.203 373.352 349.219C374.008 348.234 375.133 347.414 376.727 346.758C378.32 346.055 380.406 345.539 382.984 345.211C385.516 344.836 388.68 344.648 392.477 344.648C395.43 344.648 398.336 344.812 401.195 345.141C404.055 345.422 406.891 345.773 409.703 346.195L411.602 344.227C412.586 343.055 413.336 341.578 413.852 339.797C414.367 337.969 414.742 335.625 414.977 332.766C415.211 329.906 415.352 326.414 415.398 322.289C415.445 318.117 415.469 313.078 415.469 307.172C415.469 301.453 415.492 296.578 415.539 292.547C415.633 288.469 415.82 284.977 416.102 282.07C416.383 279.164 416.805 276.703 417.367 274.688C417.93 272.625 418.68 270.75 419.617 269.062C420.602 267.328 421.82 265.641 423.273 264C424.727 262.312 426.461 260.391 428.477 258.234L432.062 261.398C431.031 262.383 430.211 263.602 429.602 265.055C429.039 266.461 428.617 268.148 428.336 270.117C428.055 272.039 427.867 274.242 427.773 276.727C427.727 279.164 427.703 281.93 427.703 285.023V324.609C427.703 327.656 427.375 330.328 426.719 332.625C426.062 334.875 425.172 336.891 424.047 338.672C422.969 340.453 421.727 342.047 420.32 343.453C418.914 344.859 417.461 346.172 415.961 347.391C418.727 347.953 421.422 348.516 424.047 349.078C426.672 349.641 429.203 350.156 431.641 350.625C434.125 351.094 436.492 351.492 438.742 351.82C441.039 352.102 443.219 352.242 445.281 352.242C449.125 352.242 452.547 351.398 455.547 349.711C458.547 348.023 461.148 345.727 463.352 342.82C465.555 339.867 467.406 336.422 468.906 332.484C470.453 328.5 471.695 324.234 472.633 319.688C473.57 315.141 474.227 310.383 474.602 305.414C475.023 300.445 475.234 295.523 475.234 290.648C475.234 282.914 474.25 275.977 472.281 269.836C470.312 263.695 467.383 258.492 463.492 254.227C459.648 249.914 454.844 246.633 449.078 244.383C443.359 242.086 436.727 240.938 429.18 240.938C423.742 240.938 419.008 241.383 414.977 242.273C410.945 243.117 407.477 244.266 404.57 245.719C401.711 247.125 399.367 248.742 397.539 250.57C395.711 252.398 394.258 254.297 393.18 256.266C392.148 258.188 391.422 260.109 391 262.031C390.625 263.953 390.438 265.711 390.438 267.305C390.438 269.18 390.578 271.031 390.859 272.859C391.188 274.641 391.797 276.234 392.688 277.641C393.625 279.047 394.938 280.172 396.625 281.016C398.312 281.859 400.562 282.281 403.375 282.281C404.312 282.281 405.086 282.234 405.695 282.141C406.305 282 406.82 281.836 407.242 281.648C407.711 281.461 408.109 281.25 408.438 281.016L409.281 285.164C408.578 285.68 407.383 286.125 405.695 286.5C404.055 286.875 402.273 287.062 400.352 287.062C397.539 287.062 394.914 286.57 392.477 285.586C390.086 284.602 388 283.266 386.219 281.578C384.438 279.844 383.055 277.852 382.07 275.602C381.039 273.352 380.523 270.961 380.523 268.43C380.523 264.07 381.672 259.945 383.969 256.055C386.266 252.117 389.477 248.672 393.602 245.719C397.727 242.719 402.625 240.352 408.297 238.617C414.016 236.836 420.25 235.945 427 235.945ZM383.828 349.711C383.078 349.711 382.281 349.734 381.438 349.781C380.594 349.828 379.82 349.945 379.117 350.133C378.367 350.32 377.758 350.602 377.289 350.977C376.82 351.352 376.586 351.891 376.586 352.594C376.586 353.531 377.359 354.234 378.906 354.703C380.453 355.172 383.055 355.406 386.711 355.406C389.523 355.406 392.195 355.102 394.727 354.492C397.305 353.883 399.719 352.992 401.969 351.82C398.875 351.258 395.805 350.766 392.758 350.344C389.711 349.922 386.734 349.711 383.828 349.711ZM506.383 329.531C506.383 331.828 506.312 334.266 506.172 336.844C506.031 339.375 505.727 341.93 505.258 344.508C504.836 347.039 504.203 349.523 503.359 351.961C502.516 354.352 501.367 356.578 499.914 358.641L494.57 357.023C495.742 353.086 496.445 348.961 496.68 344.648C496.914 340.336 497.031 336.023 497.031 331.711C497.031 327.023 496.891 322.336 496.609 317.648C496.281 312.961 495.93 308.273 495.555 303.586C495.133 298.852 494.781 294.094 494.5 289.312C494.172 284.531 494.008 279.703 494.008 274.828C494.008 271.875 494.336 269.297 494.992 267.094C495.602 264.891 496.422 263.062 497.453 261.609C498.484 260.156 499.633 259.078 500.898 258.375C502.164 257.625 503.43 257.25 504.695 257.25C506.477 257.25 507.883 257.883 508.914 259.148C509.992 260.414 510.789 262.125 511.305 264.281C511.82 266.438 512.078 268.945 512.078 271.805C512.125 274.664 512.008 277.688 511.727 280.875C511.445 284.062 511.047 287.32 510.531 290.648C510.016 293.977 509.453 297.211 508.844 300.352C508.234 303.492 507.625 306.422 507.016 309.141C506.453 311.859 505.961 314.18 505.539 316.102C505.539 316.477 505.562 316.875 505.609 317.297C505.656 317.672 505.68 318.047 505.68 318.422C506.664 316.219 507.859 313.852 509.266 311.32C510.719 308.742 512.336 306.352 514.117 304.148C515.945 301.945 517.914 300.117 520.023 298.664C522.18 297.164 524.453 296.414 526.844 296.414C530.359 296.414 533.008 297.586 534.789 299.93C536.57 302.273 537.461 305.648 537.461 310.055C537.461 313.102 537.297 316.031 536.969 318.844C536.641 321.656 536.266 324.375 535.844 327C535.469 329.578 535.117 332.086 534.789 334.523C534.461 336.961 534.297 339.375 534.297 341.766C534.297 344.625 535.023 346.055 536.477 346.055C537.18 346.055 538.07 345.445 539.148 344.227C540.273 342.961 541.516 341.297 542.875 339.234C544.234 337.172 545.664 334.805 547.164 332.133C548.664 329.461 550.141 326.672 551.594 323.766L552.297 322.289L555.18 324.469L554.477 325.945C552.836 329.18 551.125 332.461 549.344 335.789C547.562 339.117 545.734 342.141 543.859 344.859C541.984 347.531 540.062 349.734 538.094 351.469C536.172 353.156 534.25 354 532.328 354C531.484 354 530.617 353.859 529.727 353.578C528.883 353.297 528.109 352.805 527.406 352.102C526.703 351.398 526.117 350.461 525.648 349.289C525.18 348.07 524.945 346.523 524.945 344.648C524.945 342.773 525.039 340.734 525.227 338.531C525.414 336.328 525.625 334.078 525.859 331.781C526.141 329.438 526.445 327.117 526.773 324.82C527.102 322.523 527.383 320.367 527.617 318.352C527.898 316.336 528.133 314.531 528.32 312.938C528.508 311.297 528.602 309.961 528.602 308.93C528.602 306.258 528.227 304.312 527.477 303.094C526.727 301.875 525.602 301.266 524.102 301.266C522.227 301.266 520.422 302.086 518.688 303.727C516.953 305.367 515.312 307.43 513.766 309.914C512.266 312.352 510.883 315 509.617 317.859C508.352 320.672 507.227 323.273 506.242 325.664C506.242 326.367 506.266 327.07 506.312 327.773C506.359 328.43 506.383 329.016 506.383 329.531ZM501.812 269.344C501.812 271.266 501.883 273.609 502.023 276.375C502.211 279.094 502.422 282.047 502.656 285.234C502.938 288.422 503.219 291.75 503.5 295.219C503.828 298.688 504.156 302.109 504.484 305.484C505 302.859 505.516 299.977 506.031 296.836C506.547 293.648 506.992 290.461 507.367 287.273C507.789 284.039 508.094 280.898 508.281 277.852C508.516 274.805 508.562 272.109 508.422 269.766C508.328 267.422 508.023 265.547 507.508 264.141C506.992 262.688 506.242 261.961 505.258 261.961C504.367 261.961 503.57 262.5 502.867 263.578C502.164 264.656 501.812 266.578 501.812 269.344ZM564.109 300.703C564.109 302.531 563.945 304.852 563.617 307.664C563.336 310.477 563.008 313.617 562.633 317.086C562.305 320.508 561.977 324.188 561.648 328.125C561.367 332.062 561.227 336.07 561.227 340.148C561.227 343.43 561.766 345.703 562.844 346.969C563.922 348.188 565.398 348.797 567.273 348.797C568.586 348.797 569.922 348.445 571.281 347.742C572.641 347.039 573.93 346.078 575.148 344.859C576.414 343.641 577.586 342.188 578.664 340.5C579.742 338.812 580.703 336.984 581.547 335.016C578.875 333.375 576.625 330.703 574.797 327C572.969 323.25 572.055 318.516 572.055 312.797C572.055 309.938 572.359 307.523 572.969 305.555C573.578 303.539 574.375 301.898 575.359 300.633C576.391 299.367 577.539 298.453 578.805 297.891C580.07 297.281 581.359 296.977 582.672 296.977C583.844 296.977 584.992 297.211 586.117 297.68C587.242 298.148 588.227 298.922 589.07 300C589.914 301.031 590.594 302.414 591.109 304.148C591.625 305.883 591.883 308.016 591.883 310.547C591.883 313.734 591.484 317.32 590.688 321.305C589.938 325.242 588.812 329.18 587.312 333.117C587.547 333.117 587.781 333.141 588.016 333.188C588.25 333.234 588.484 333.258 588.719 333.258C591.344 333.258 593.57 332.414 595.398 330.727C597.273 328.992 598.938 326.672 600.391 323.766L601.094 322.289L603.977 324.469L603.273 325.945C601.398 329.602 599.125 332.344 596.453 334.172C593.828 335.953 591.109 336.844 588.297 336.844C587.875 336.844 587.406 336.82 586.891 336.773C586.422 336.727 586.07 336.656 585.836 336.562C584.758 338.953 583.492 341.203 582.039 343.312C580.586 345.422 578.969 347.273 577.188 348.867C575.453 350.414 573.531 351.656 571.422 352.594C569.359 353.531 567.156 354 564.812 354C562.891 354 561.109 353.719 559.469 353.156C557.828 352.547 556.375 351.469 555.109 349.922C553.891 348.328 552.93 346.195 552.227 343.523C551.523 340.805 551.172 337.336 551.172 333.117C551.172 331.242 551.219 329.156 551.312 326.859C551.406 324.516 551.547 322.148 551.734 319.758C551.875 317.367 552.062 315.023 552.297 312.727C552.484 310.43 552.695 308.344 552.93 306.469C553.164 304.547 553.398 302.953 553.633 301.688C553.867 300.375 554.102 299.531 554.336 299.156C554.898 298.125 555.836 297.422 557.148 297.047C558.461 296.625 559.727 296.414 560.945 296.414C561.789 296.414 562.516 296.719 563.125 297.328C563.781 297.938 564.109 299.062 564.109 300.703ZM575.922 313.078C575.922 317.578 576.578 321.375 577.891 324.469C579.25 327.516 580.938 329.766 582.953 331.219C583.984 328.266 584.781 325.219 585.344 322.078C585.953 318.891 586.258 315.844 586.258 312.938C586.258 311.062 586.094 309.492 585.766 308.227C585.484 306.914 585.109 305.859 584.641 305.062C584.172 304.266 583.609 303.703 582.953 303.375C582.344 303.047 581.734 302.883 581.125 302.883C580.469 302.883 579.836 303.07 579.227 303.445C578.617 303.773 578.055 304.336 577.539 305.133C577.07 305.93 576.672 306.984 576.344 308.297C576.062 309.609 575.922 311.203 575.922 313.078ZM643.703 336.562C643.703 339.234 643.938 341.484 644.406 343.312C644.875 345.141 645.695 346.055 646.867 346.055C647.57 346.055 648.32 345.727 649.117 345.07C649.961 344.367 650.922 343.242 652 341.695C653.078 340.148 654.297 338.156 655.656 335.719C657.062 333.234 658.656 330.211 660.438 326.648L662.547 322.289L665.43 324.469L663.32 328.828C661.352 332.766 659.5 336.305 657.766 339.445C656.078 342.539 654.461 345.164 652.914 347.32C651.367 349.477 649.844 351.141 648.344 352.312C646.891 353.438 645.438 354 643.984 354C642.438 354 641.125 353.578 640.047 352.734C639.016 351.891 638.148 350.742 637.445 349.289C636.742 347.789 636.203 346.078 635.828 344.156C635.453 342.188 635.195 340.102 635.055 337.898C633.93 340.148 632.688 342.258 631.328 344.227C629.969 346.148 628.539 347.836 627.039 349.289C625.586 350.742 624.062 351.891 622.469 352.734C620.875 353.578 619.281 354 617.688 354C615.344 354 613.07 353.508 610.867 352.523C608.664 351.539 606.695 350.039 604.961 348.023C603.273 346.008 601.914 343.477 600.883 340.43C599.852 337.336 599.336 333.703 599.336 329.531C599.336 324.656 599.969 320.203 601.234 316.172C602.5 312.094 604.211 308.602 606.367 305.695C608.523 302.742 611.008 300.469 613.82 298.875C616.633 297.234 619.586 296.414 622.68 296.414C624.555 296.414 626.289 296.836 627.883 297.68C629.477 298.523 630.859 299.555 632.031 300.773C633.25 301.945 634.258 303.211 635.055 304.57C635.852 305.883 636.391 307.008 636.672 307.945L637.516 301.125C637.609 300.234 638.031 299.484 638.781 298.875C639.578 298.266 640.445 297.797 641.383 297.469C642.32 297.094 643.234 296.836 644.125 296.695C645.016 296.508 645.648 296.414 646.023 296.414C646.586 296.414 646.961 296.508 647.148 296.695C647.336 296.883 647.43 297.258 647.43 297.82C647.43 298.523 647.219 299.953 646.797 302.109C646.422 304.219 646 306.938 645.531 310.266C645.109 313.547 644.688 317.414 644.266 321.867C643.891 326.32 643.703 331.219 643.703 336.562ZM635.969 318C635.969 315.844 635.641 313.734 634.984 311.672C634.328 309.562 633.438 307.711 632.312 306.117C631.188 304.477 629.875 303.164 628.375 302.18C626.922 301.195 625.375 300.703 623.734 300.703C621.719 300.703 619.82 301.289 618.039 302.461C616.305 303.586 614.781 305.203 613.469 307.312C612.203 309.375 611.195 311.883 610.445 314.836C609.695 317.742 609.32 320.953 609.32 324.469C609.32 331.5 610.422 336.867 612.625 340.57C614.828 344.227 617.758 346.055 621.414 346.055C623.008 346.055 624.648 345.422 626.336 344.156C628.07 342.844 629.641 340.992 631.047 338.602C632.5 336.164 633.672 333.211 634.562 329.742C635.5 326.273 635.969 322.359 635.969 318ZM689.617 301.266C688.305 301.266 686.828 301.852 685.188 303.023C683.594 304.195 681.977 305.719 680.336 307.594C678.695 309.422 677.102 311.484 675.555 313.781C674.055 316.078 672.742 318.352 671.617 320.602C671.477 324.727 671.336 329.227 671.195 334.102C671.102 338.977 671.055 344.18 671.055 349.711C671.055 350.414 670.727 351.047 670.07 351.609C669.461 352.125 668.734 352.57 667.891 352.945C667.047 353.273 666.18 353.531 665.289 353.719C664.398 353.906 663.672 354 663.109 354C662.406 354 661.75 353.789 661.141 353.367C660.531 352.945 660.227 352.008 660.227 350.555C660.227 349.852 660.297 348.984 660.438 347.953C660.578 346.875 660.766 345.727 661 344.508C661.188 343.289 661.422 342.047 661.703 340.781C661.938 339.469 662.172 338.25 662.406 337.125V302.742C662.406 301.805 662.43 301.078 662.477 300.562C662.477 300 662.547 299.578 662.688 299.297C662.969 298.641 663.461 298.125 664.164 297.75C664.867 297.375 665.617 297.094 666.414 296.906C667.211 296.672 667.984 296.531 668.734 296.484C669.484 296.438 670.07 296.414 670.492 296.414C671.289 296.414 671.828 296.625 672.109 297.047C672.438 297.469 672.602 298.219 672.602 299.297C672.602 299.156 672.484 300.305 672.25 302.742C672.062 305.18 671.898 308.672 671.758 313.219C673.164 311.016 674.688 308.906 676.328 306.891C677.969 304.875 679.68 303.094 681.461 301.547C683.242 300 685.07 298.758 686.945 297.82C688.867 296.883 690.812 296.414 692.781 296.414C696.297 296.414 698.875 297.539 700.516 299.789C702.156 301.992 702.977 304.992 702.977 308.789C702.977 311.18 702.812 313.852 702.484 316.805C702.203 319.711 701.852 322.688 701.43 325.734C701.055 328.734 700.703 331.688 700.375 334.594C700.094 337.453 699.953 340.078 699.953 342.469C699.953 345.562 700.914 347.109 702.836 347.109C703.445 347.109 704.148 346.805 704.945 346.195C705.789 345.539 706.82 344.344 708.039 342.609C709.305 340.875 710.805 338.508 712.539 335.508C714.273 332.461 716.336 328.547 718.727 323.766L719.43 322.289L722.312 324.469L721.609 325.945C718.797 331.57 716.289 336.188 714.086 339.797C711.93 343.406 709.961 346.266 708.18 348.375C706.398 350.484 704.734 351.961 703.188 352.805C701.641 353.602 700.094 354 698.547 354C697.562 354 696.578 353.859 695.594 353.578C694.609 353.297 693.742 352.805 692.992 352.102C692.242 351.398 691.633 350.461 691.164 349.289C690.695 348.07 690.461 346.523 690.461 344.648C690.461 341.836 690.648 338.672 691.023 335.156C691.398 331.641 691.82 328.125 692.289 324.609C692.758 321.094 693.18 317.789 693.555 314.695C693.93 311.555 694.117 309 694.117 307.031C694.117 305.297 693.742 303.914 692.992 302.883C692.242 301.805 691.117 301.266 689.617 301.266ZM723.086 323.062L722.383 324.469L721.68 325.945L718.797 323.766L719.5 322.289C720.672 319.898 721.633 317.508 722.383 315.117C723.18 312.68 723.812 310.406 724.281 308.297C724.797 306.188 725.219 304.336 725.547 302.742C725.875 301.148 726.203 300 726.531 299.297C726.812 298.734 727.211 298.289 727.727 297.961C728.289 297.586 728.852 297.281 729.414 297.047C730.023 296.812 730.586 296.648 731.102 296.555C731.664 296.461 732.062 296.414 732.297 296.414C733.328 296.414 734.008 296.625 734.336 297.047C734.711 297.469 734.898 298.219 734.898 299.297C734.898 299.812 734.781 301.102 734.547 303.164C734.359 305.18 734.125 307.734 733.844 310.828C733.609 313.875 733.375 317.32 733.141 321.164C732.953 324.961 732.859 328.898 732.859 332.977C732.859 335.93 733 338.273 733.281 340.008C733.562 341.695 733.914 342.961 734.336 343.805C734.805 344.648 735.297 345.188 735.812 345.422C736.375 345.656 736.938 345.773 737.5 345.773C738.25 345.773 739.094 345.445 740.031 344.789C740.969 344.133 742.07 342.984 743.336 341.344C744.602 339.656 746.055 337.406 747.695 334.594C749.336 331.734 751.258 328.125 753.461 323.766L754.234 322.289L757.117 324.469L756.344 325.945C754.562 329.414 752.781 332.836 751 336.211C749.266 339.586 747.484 342.586 745.656 345.211C743.875 347.836 742.07 349.969 740.242 351.609C738.414 353.203 736.586 354 734.758 354C732.836 354 731.172 353.625 729.766 352.875C728.406 352.078 727.258 350.789 726.32 349.008C725.43 347.227 724.75 344.883 724.281 341.977C723.859 339.023 723.648 335.391 723.648 331.078C723.648 329.859 723.648 328.594 723.648 327.281C723.648 325.922 723.695 324.516 723.789 323.062H723.086ZM737.5 282C737.5 283.641 736.938 285.023 735.812 286.148C734.734 287.227 733.375 287.766 731.734 287.766C730.141 287.766 728.781 287.227 727.656 286.148C726.531 285.023 725.969 283.641 725.969 282C725.969 280.406 726.531 279.047 727.656 277.922C728.781 276.797 730.141 276.234 731.734 276.234C733.375 276.234 734.734 276.797 735.812 277.922C736.938 279.047 737.5 280.406 737.5 282Z" fill="white"/>
</g>
<defs>
<clipPath id="clip0_104_29">
<rect width="1440" height="1024" fill="white"/>
</clipPath>
</defs>
</svg>
