<svg width="150" height="50" viewBox="0 0 392 131" fill="none" xmlns="http://www.w3.org/2000/svg">
<path d="M377.892 114.061C379.762 111.375 381.574 108.321 383.33 104.904C385.112 101.528 386.894 98.1051 388.675 94.6359C388.676 94.6341 388.677 94.6323 388.678 94.6305L389.446 93.1648L390.036 92.0388L389.022 91.2723L386.139 89.0926L384.727 88.0249L383.906 89.5931L383.132 91.0696L383.127 91.0793L383.122 91.0891C380.927 95.4326 379.019 99.0151 377.397 101.843C375.775 104.622 374.358 106.814 373.142 108.436C371.91 110.032 370.921 111.036 370.171 111.56C369.361 112.127 368.819 112.273 368.5 112.273C368.161 112.273 367.804 112.206 367.42 112.05C367.326 112 367.047 111.788 366.664 111.106C366.347 110.46 366.031 109.378 365.761 107.765C365.499 106.145 365.359 103.894 365.359 100.977C365.359 96.9244 365.452 93.0145 365.638 89.2467C365.872 85.4167 366.105 81.9859 366.339 78.9534C366.619 75.8727 366.852 73.3278 367.039 71.3182C367.269 69.296 367.398 67.9153 367.398 67.2969C367.398 66.1595 367.223 64.9408 366.489 64.0865C365.696 63.1066 364.381 62.9141 363.297 62.9141C362.925 62.9141 362.416 62.9815 361.855 63.0751L361.844 63.0769L361.833 63.0789C361.206 63.1929 360.552 63.3867 359.876 63.6469L359.856 63.6543L359.837 63.6623C359.181 63.9358 358.537 64.2854 357.907 64.7046C357.162 65.1822 356.586 65.8329 356.19 66.6261L356.181 66.6442L356.172 66.6625C355.765 67.534 355.41 68.8278 355.078 70.4397C354.754 72.0107 354.337 73.8437 353.824 75.9407L353.82 75.956L353.817 75.9715C353.361 78.0256 352.742 80.2516 351.957 82.6511L351.954 82.6596L351.952 82.6682C351.226 84.982 350.294 87.3022 349.153 89.6288L349.149 89.6365L349.146 89.6442L348.443 91.1207L347.917 92.2247L348.892 92.9621L351.775 95.1418L353.148 96.1802V96.1813V96.1888V96.1964V96.2039V96.2115V96.2191V96.2266V96.2342V96.2417V96.2493V96.2568V96.2644V96.2719V96.2795V96.287V96.2946V96.3021V96.3097V96.3172V96.3248V96.3323V96.3399V96.3474V96.3549V96.3625V96.37V96.3775V96.3851V96.3926V96.4002V96.4077V96.4152V96.4227V96.4303V96.4378V96.4453V96.4529V96.4604V96.4679V96.4754V96.4829V96.4905V96.498V96.5055V96.513V96.5205V96.5281V96.5356V96.5431V96.5506V96.5581V96.5656V96.5731V96.5806V96.5881V96.5956V96.6031V96.6106V96.6181V96.6256V96.6331V96.6406V96.6481V96.6556V96.6631V96.6706V96.6781V96.6856V96.6931V96.7006V96.7081V96.7156V96.7231V96.7306V96.738V96.7455V96.753V96.7605V96.768V96.7754V96.7829V96.7904V96.7979V96.8054V96.8128V96.8203V96.8278V96.8352V96.8427V96.8502V96.8577V96.8651V96.8726V96.88V96.8875V96.895V96.9024V96.9099V96.9174V96.9248V96.9323V96.9397V96.9472V96.9546V96.9621V96.9695V96.977V96.9844V96.9919V96.9993V97.0068V97.0142V97.0217V97.0291V97.0366V97.044V97.0514V97.0589V97.0663V97.0737V97.0812V97.0886V97.0961V97.1035V97.1109V97.1183V97.1258V97.1332V97.1406V97.1481V97.1555V97.1629V97.1703V97.1777V97.1852V97.1926V97.2V97.2074V97.2148V97.2223V97.2297V97.2371V97.2445V97.2519V97.2593V97.2667V97.2741V97.2815V97.2889V97.2964V97.3038V97.3112V97.3186V97.326V97.3334V97.3408V97.3482V97.3555V97.3629V97.3703V97.3777V97.3851V97.3925V97.3999V97.4073V97.4147V97.4221V97.4295V97.4368V97.4442V97.4516V97.459V97.4664V97.4737V97.4811V97.4885V97.4959V97.5032V97.5106V97.518V97.5254V97.5327V97.5401V97.5475V97.5548V97.5622V97.5696V97.5769V97.5843V97.5917V97.599V97.6064V97.6137V97.6211V97.6284V97.6358V97.6432V97.6505V97.6579V97.6652V97.6726V97.6799V97.6873V97.6946V97.7019V97.7093V97.7166V97.724V97.7313V97.7387V97.746V97.7533V97.7607V97.768V97.7753V97.7827V97.79V97.7973V97.8047V97.812V97.8193V97.8267V97.834V97.8413V97.8486V97.856V97.8633V97.8706V97.8779V97.8852V97.8926V97.8999V97.9072V97.9145V97.9218V97.9291V97.9364V97.9437V97.9511V97.9584V97.9657V97.973V97.9803V97.9876V97.9949V98.0022V98.0095V98.0168V98.0241V98.0314V98.0387V98.046V98.0533V98.0606V98.0679V98.0751V98.0824V98.0897V98.097V98.1043V98.1116V98.1189V98.1262V98.1334V98.1407V98.148V98.1553V98.1626V98.1698V98.1771V98.1844V98.1917V98.1989V98.2062V98.2135V98.2207V98.228V98.2353V98.2425V98.2498V98.2571V98.2643V98.2716V98.2789V98.2861V98.2934V98.3006V98.3079V98.3151V98.3224V98.3296V98.3369V98.3442V98.3514V98.3587V98.3659V98.3731V98.3804V98.3876V98.3949V98.4021V98.4094V98.4166V98.4238V98.4311V98.4383V98.4456V98.4528V98.46V98.4673V98.4745V98.4817V98.4889V98.4962V98.5034V98.5106V98.5179V98.5251V98.5323V98.5395V98.5467V98.554V98.5612V98.5684V98.5756V98.5828V98.59V98.5973V98.6045V98.6117V98.6189V98.6261V98.6333V98.6405V98.6477V98.6549V98.6621V98.6693V98.6765V98.6837V98.6909V98.6981V98.7053V98.7125V98.7197V98.7269V98.7341V98.7413V98.7485V98.7557V98.7629V98.7701V98.7773V98.7844V98.7916V98.7988V98.806V98.8132V98.8204V98.8275V98.8347V98.8419V98.8491V98.8562V98.8634V98.8706V98.8778V98.8849V98.8921V98.8993V98.9064V98.9136V98.9208V98.9279V98.9351V98.9422V98.9494V98.9566V98.9637V98.9709V98.978V98.9852V98.9924V98.9995V99.0067V99.0138V99.021V99.0281V99.0353V99.0424V99.0496V99.0567V99.0638V99.071V99.0781C353.148 103.433 353.361 107.142 353.796 110.189L353.798 110.202L353.8 110.215C354.283 113.207 354.996 115.713 355.979 117.679L355.986 117.693L355.993 117.706C357.025 119.667 358.348 121.196 360.007 122.169L360.033 122.184L360.06 122.199C361.724 123.086 363.64 123.5 365.758 123.5C368.053 123.5 370.217 122.493 372.228 120.74L372.236 120.733L372.244 120.726C374.183 118.986 376.063 116.755 377.892 114.061ZM357.596 55.2091L357.607 55.2204L357.618 55.2314C359.03 56.5839 360.764 57.2656 362.734 57.2656C364.739 57.2656 366.491 56.5913 367.873 55.2091C369.289 53.7931 370 52.0246 370 50C370 48.0145 369.284 46.2774 367.884 44.8725C366.509 43.443 364.754 42.7344 362.734 42.7344C360.744 42.7344 359.002 43.4544 357.596 44.8612C356.189 46.2681 355.469 48.0092 355.469 50C355.469 52.0246 356.18 53.7931 357.596 55.2091Z" stroke="white" stroke-width="3"/>
<path d="M306.165 73.9437C305.577 74.6663 305.003 75.4007 304.445 76.1469C304.537 74.028 304.637 72.2704 304.744 70.8715C304.861 69.6605 304.948 68.7724 305.006 68.205C305.035 67.9184 305.056 67.721 305.07 67.6064C305.075 67.5565 305.078 67.5377 305.078 67.5377C305.078 67.5377 305.078 67.5398 305.077 67.5434L305.077 67.5438C305.076 67.5487 305.072 67.5748 305.064 67.61C305.061 67.6262 305.051 67.6676 305.036 67.7201C305.028 67.7463 305.013 67.793 304.99 67.8499C304.973 67.8911 304.921 68.0167 304.821 68.1575C304.82 68.1585 304.819 68.1598 304.818 68.1613C304.771 68.2275 304.394 68.7633 303.643 68.7848C303.573 68.7868 303.505 68.7843 303.441 68.7781C303.531 67.8703 303.583 67.3766 303.597 67.2969H303.602H305.102L305.102 67.2955C305.102 67.2932 305.102 67.2888 305.102 67.2826C305.1 66.1781 304.953 65.008 304.327 64.1695C303.631 63.1697 302.478 62.9141 301.492 62.9141C301.024 62.9141 300.402 62.9397 299.641 62.9873C298.781 63.041 297.91 63.1998 297.03 63.4557C296.125 63.6721 295.267 63.9952 294.458 64.4265C293.503 64.9361 292.758 65.6814 292.324 66.6699C292.055 67.2336 291.982 67.8889 291.977 68.4936C291.928 69.0689 291.906 69.8253 291.906 70.7422V104.971C291.681 106.06 291.456 107.232 291.232 108.487C290.949 109.763 290.712 111.018 290.522 112.252C290.285 113.485 290.095 114.652 289.951 115.755C289.805 116.823 289.727 117.761 289.727 118.555C289.727 120.061 290.012 121.718 291.287 122.6C292.133 123.186 293.084 123.5 294.109 123.5C294.819 123.5 295.66 123.384 296.598 123.187C297.568 122.982 298.514 122.701 299.434 122.343L299.467 122.33L299.5 122.316C300.454 121.892 301.306 121.375 302.039 120.754L302.039 120.754L302.046 120.748C302.952 119.972 303.555 118.951 303.555 117.711C303.555 112.191 303.601 107 303.695 102.138C303.832 97.3969 303.968 93.0117 304.105 88.9818C305.168 86.8848 306.401 84.761 307.805 82.6104C309.316 80.3675 310.865 78.3638 312.452 76.5956L312.459 76.5886L312.465 76.5815C314.048 74.7719 315.584 73.3305 317.068 72.2381C318.578 71.1612 319.746 70.7656 320.617 70.7656C321.707 70.7656 322.334 71.1264 322.761 71.7394L322.77 71.7523L322.779 71.7651C323.286 72.4621 323.617 73.5017 323.617 75.0312C323.617 76.9157 323.437 79.4042 323.065 82.5157C322.691 85.6025 322.27 88.9009 321.802 92.4111C321.332 95.9397 320.908 99.4684 320.532 102.997C320.153 106.553 319.961 109.771 319.961 112.648C319.961 114.634 320.207 116.38 320.764 117.828L320.768 117.837L320.771 117.846C321.303 119.176 322.024 120.312 322.966 121.196C323.89 122.061 324.967 122.673 326.182 123.02C327.295 123.338 328.418 123.5 329.547 123.5C331.361 123.5 333.142 123.031 334.874 122.138L334.89 122.13L334.906 122.122C336.681 121.153 338.485 119.523 340.326 117.343C342.178 115.149 344.193 112.217 346.37 108.572C348.602 104.915 351.129 100.26 353.951 94.6161L353.957 94.6032L353.964 94.5902L354.667 93.1137L355.192 92.0097L354.217 91.2723L351.334 89.0926L349.867 87.9828L349.075 89.6442L348.378 91.1077C345.998 95.8676 343.952 99.7497 342.238 102.761C340.517 105.737 339.048 108.052 337.827 109.725L337.819 109.736L337.812 109.747C336.615 111.45 335.689 112.493 335.029 113.008C334.342 113.532 333.963 113.609 333.836 113.609C333.359 113.609 333.137 113.462 332.948 113.158C332.686 112.735 332.453 111.909 332.453 110.469C332.453 108.139 332.59 105.567 332.867 102.751C333.193 99.8577 333.544 96.9174 333.917 93.9301C334.34 90.8711 334.694 87.8809 334.976 84.9596C335.308 81.9683 335.477 79.2435 335.477 76.7891C335.477 72.7933 334.615 69.4429 332.723 66.8991C330.727 64.1656 327.633 62.9141 323.781 62.9141C321.565 62.9141 319.396 63.4435 317.288 64.4722L317.281 64.4754L317.274 64.4787C315.274 65.479 313.342 66.7951 311.477 68.4143C309.625 70.0232 307.854 71.8678 306.165 73.9437Z" stroke="white" stroke-width="3"/>
<path d="M266.783 70.91C266.023 69.7737 265.125 68.7081 264.092 67.7125C262.807 66.3808 261.301 65.2625 259.585 64.354C257.766 63.3912 255.789 62.9141 253.68 62.9141C250.309 62.9141 247.1 63.8106 244.073 65.5746C241.057 67.2853 238.422 69.7085 236.159 72.8062C233.888 75.8687 232.109 79.5168 230.802 83.725C229.485 87.9214 228.836 92.5278 228.836 97.5312C228.836 101.822 229.366 105.621 230.46 108.904L230.462 108.911C231.54 112.095 232.981 114.8 234.811 116.986L234.817 116.994L234.824 117.002C236.688 119.168 238.831 120.81 241.255 121.893C243.645 122.961 246.127 123.5 248.688 123.5C250.557 123.5 252.389 123.003 254.171 122.06C255.91 121.139 257.549 119.899 259.091 118.358C260.663 116.835 262.149 115.078 263.553 113.093L263.558 113.086L263.562 113.079C264.081 112.328 264.583 111.557 265.068 110.767C265.155 111.332 265.25 111.888 265.355 112.437L265.356 112.444C265.75 114.465 266.323 116.296 267.087 117.926L267.091 117.934L267.095 117.942C267.873 119.551 268.865 120.887 270.097 121.895L270.11 121.906L270.122 121.916C271.498 122.992 273.148 123.5 274.984 123.5C276.849 123.5 278.617 122.772 280.262 121.499L280.267 121.495C281.914 120.208 283.533 118.425 285.133 116.195C286.724 113.976 288.373 111.297 290.081 108.167C291.826 105.006 293.687 101.449 295.662 97.4989L295.666 97.4902L295.671 97.4815L297.78 93.1221L298.316 92.0144L297.334 91.2723L294.452 89.0926L292.993 87.9898L292.197 89.6357L290.091 93.9863C288.319 97.5303 286.739 100.527 285.351 102.98L285.351 102.98L285.346 102.988C284.001 105.401 282.809 107.346 281.769 108.838C280.723 110.339 279.853 111.337 279.16 111.915C278.512 112.448 278.091 112.555 277.867 112.555C277.73 112.555 277.631 112.525 277.489 112.367C277.304 112.161 277.063 111.734 276.859 110.94C276.432 109.272 276.203 107.156 276.203 104.562C276.203 99.256 276.389 94.4029 276.76 90.0008C277.18 85.5663 277.599 81.7221 278.018 78.4658C278.484 75.1575 278.902 72.4655 279.271 70.3844C279.686 68.2635 279.93 66.6927 279.93 65.8203C279.93 65.4667 279.901 65.1003 279.815 64.7534C279.73 64.4155 279.564 63.9892 279.209 63.6347C278.855 63.2801 278.428 63.1136 278.09 63.0292C277.743 62.9424 277.377 62.9141 277.023 62.9141C276.483 62.9141 275.726 63.0368 274.853 63.2198C273.861 63.3795 272.862 63.6638 271.856 64.064C270.779 64.4445 269.783 64.9856 268.87 65.6835L268.853 65.6969L268.835 65.7108C267.808 66.5455 267.167 67.6412 267.025 68.9531L266.783 70.91ZM264.552 80.1175L264.552 80.1175L264.555 80.1267C265.165 82.0427 265.469 83.9987 265.469 86C265.469 90.2542 265.011 94.0334 264.114 97.3508L264.112 97.36L264.11 97.3692C263.246 100.734 262.122 103.546 260.758 105.833L260.754 105.841C259.422 108.106 257.974 109.792 256.433 110.958C254.923 112.09 253.592 112.555 252.414 112.555C249.381 112.555 246.897 111.092 244.912 107.8C242.91 104.432 241.82 99.3805 241.82 92.4688C241.82 89.0586 242.184 85.9758 242.898 83.2108L242.899 83.2052C243.621 80.3644 244.577 78.0057 245.745 76.101C246.963 74.1435 248.34 72.7021 249.855 71.7194L249.855 71.7194L249.863 71.7141C251.415 70.6934 253.029 70.2031 254.734 70.2031C256.054 70.2031 257.311 70.5931 258.534 71.4216L258.543 71.4277L258.552 71.4338C259.872 72.3 261.049 73.4682 262.075 74.9655L262.081 74.9739L262.087 74.9822C263.111 76.4321 263.936 78.1383 264.552 80.1175Z" stroke="white" stroke-width="3"/>
<path d="M205.098 111.789L205.108 111.779C206.278 110.652 207.377 109.294 208.4 107.692C209.224 106.403 209.979 105.023 210.664 103.552C208.184 101.715 206.125 99.054 204.452 95.664L204.449 95.6573L204.449 95.6573C202.491 91.6412 201.555 86.6636 201.555 80.7969C201.555 77.843 201.868 75.2711 202.534 73.1161C203.181 70.9784 204.049 69.1596 205.175 67.7119L205.186 67.6985L205.197 67.6853C206.345 66.2762 207.667 65.2037 209.174 64.5293C210.622 63.8356 212.126 63.4766 213.672 63.4766C215.05 63.4766 216.394 63.7533 217.694 64.2951C219.08 64.8726 220.261 65.8139 221.242 67.0629C222.243 68.2909 222.996 69.8664 223.547 71.721C224.117 73.6371 224.383 75.9238 224.383 78.5469C224.383 81.8539 223.97 85.5386 223.16 89.5922C222.515 92.9773 221.599 96.3582 220.415 99.7345C222.372 99.6008 224.005 98.8938 225.38 97.6254L205.098 111.789ZM205.098 111.789L205.088 111.799M205.098 111.789L205.088 111.799M205.088 111.799C203.965 112.922 202.798 113.786 201.592 114.41C200.41 115.021 199.309 115.297 198.273 115.297C196.762 115.297 195.725 114.825 194.977 113.986C194.273 113.15 193.727 111.357 193.727 108.148C193.727 104.108 193.866 100.139 194.144 96.2407C194.471 92.3153 194.798 88.6478 195.125 85.2381C195.499 81.7749 195.827 78.6373 196.109 75.8256C196.439 72.9884 196.609 70.609 196.609 68.7031C196.609 66.9741 196.285 65.3043 195.167 64.2489C194.286 63.3769 193.188 62.9141 191.945 62.9141C190.559 62.9141 189.146 63.1529 187.712 63.6116C186.105 64.0761 184.822 64.9891 184.038 66.4042C183.816 66.7749 183.66 67.233 183.539 67.6688C183.405 68.1519 183.278 68.7397 183.157 69.4191C182.915 70.7248 182.677 72.3493 182.441 74.2849C182.204 76.1805 181.992 78.2824 181.803 80.5894C181.568 82.8989 181.379 85.2541 181.238 87.6551C181.049 90.0592 180.908 92.4405 180.814 94.7988C180.719 97.1115 180.672 99.218 180.672 101.117C180.672 105.406 181.028 109.013 181.774 111.899L181.776 111.905C182.512 114.701 183.542 117.034 184.918 118.833L184.933 118.853L184.948 118.872C186.358 120.595 188.022 121.848 189.946 122.562L189.964 122.569L189.982 122.575C191.795 123.197 193.743 123.5 195.812 123.5C198.361 123.5 200.774 122.989 203.037 121.962C205.287 120.961 207.338 119.635 209.186 117.987L209.188 117.985C211.064 116.307 212.759 114.364 214.274 112.163C215.558 110.3 216.699 108.333 217.698 106.262C217.713 106.263 217.727 106.265 217.741 106.266L217.741 106.266L217.755 106.267C218.306 106.317 218.821 106.344 219.297 106.344C222.447 106.344 225.455 105.341 228.295 103.413L228.3 103.41C231.226 101.408 233.649 98.4497 235.608 94.6298L235.618 94.6101L235.628 94.5902L236.331 93.1137L236.857 92.0097L235.881 91.2723L232.998 89.0926L231.531 87.9828M205.088 111.799L231.531 87.9828M231.531 87.9828L230.739 89.6442M231.531 87.9828L230.739 89.6442M230.739 89.6442L230.043 91.1076M230.739 89.6442L230.043 91.1076M230.043 91.1076C228.651 93.8879 227.089 96.0445 225.38 97.6253L230.043 91.1076ZM214.87 89.7965L214.869 89.8051L214.867 89.8137C214.454 92.1225 213.911 94.3778 213.238 96.5801C212.141 95.3918 211.144 93.8355 210.266 91.8703C209.058 89.0153 208.422 85.4349 208.422 81.0781C208.422 79.2831 208.556 77.8094 208.805 76.6358C209.107 75.4346 209.454 74.5453 209.816 73.9206C210.236 73.2782 210.622 72.9358 210.938 72.766L210.976 72.7455L211.013 72.7228C211.408 72.4797 211.771 72.3828 212.125 72.3828C212.454 72.3828 212.821 72.4691 213.242 72.6957L213.262 72.7065L213.282 72.7166C213.62 72.8853 213.988 73.2112 214.348 73.823C214.707 74.4342 215.038 75.321 215.299 76.5409L215.306 76.5721L215.314 76.603C215.599 77.7053 215.758 79.1396 215.758 80.9375C215.758 83.739 215.464 86.6912 214.87 89.7965Z" stroke="white" stroke-width="3"/>
<path d="M138.67 104.927L138.67 104.925C138.812 102.323 138.883 99.8585 138.883 97.5312C138.883 96.9728 138.858 96.3514 138.809 95.6702C138.771 95.0993 138.749 94.5286 138.744 93.9579C139.693 91.6609 140.774 89.1667 141.985 86.4749L141.985 86.4749L141.989 86.4665C143.229 83.6647 144.58 81.078 146.041 78.704C147.534 76.3064 149.096 74.3509 150.718 72.8163C152.253 71.3642 153.707 70.7656 155.102 70.7656C156.111 70.7656 156.738 71.1301 157.199 71.8799C157.725 72.734 158.102 74.3314 158.102 76.9297C158.102 77.8802 158.014 79.1524 157.83 80.7644C157.644 82.3445 157.412 84.1375 157.132 86.1443L157.129 86.1613L157.127 86.1783C156.895 88.1793 156.615 90.3225 156.289 92.6082C155.959 94.9164 155.653 97.2478 155.37 99.6025L155.368 99.6157L155.367 99.629C155.132 101.934 154.92 104.192 154.732 106.404C154.541 108.642 154.445 110.724 154.445 112.648C154.445 114.634 154.691 116.38 155.248 117.828L155.252 117.837L155.256 117.846C155.78 119.158 156.466 120.282 157.346 121.162C158.194 122.01 159.163 122.638 160.252 123.001L160.264 123.005L160.275 123.008C161.296 123.331 162.316 123.5 163.328 123.5C165.72 123.5 167.98 122.443 170.083 120.596L170.085 120.594C172.161 118.765 174.16 116.467 176.087 113.721L176.094 113.711C178.005 110.94 179.862 107.868 181.666 104.497C183.452 101.159 185.169 97.8684 186.814 94.6239L186.823 94.6071L186.831 94.5902L187.534 93.1136L188.06 92.0097L187.084 91.2723L184.202 89.0926L182.734 87.9828L181.943 89.6442L181.246 91.1076C179.805 93.9891 178.341 96.7526 176.856 99.3985C175.37 102.046 173.958 104.382 172.623 106.409C171.287 108.436 170.088 110.036 169.027 111.23L169.025 111.233C168.531 111.791 168.131 112.15 167.825 112.36C167.595 112.517 167.478 112.549 167.457 112.554C167.368 112.552 167.346 112.533 167.346 112.532C167.337 112.527 167.269 112.48 167.179 112.303C166.977 111.905 166.797 111.117 166.797 109.766C166.797 107.444 166.956 105.097 167.276 102.724C167.603 100.295 167.953 97.7962 168.327 95.2269C168.751 92.5827 169.129 89.8462 169.459 87.0176C169.794 84.1432 169.961 81.1553 169.961 78.0547C169.961 73.4758 169.04 69.728 166.983 67.0221C164.862 64.2306 161.726 62.9141 157.844 62.9141C155.118 62.9141 152.55 63.7752 150.17 65.4308C147.936 66.9703 145.868 68.8948 143.963 71.1906L143.957 71.1979L143.951 71.2054C142.299 73.2489 140.786 75.4458 139.412 77.7947C139.435 77.6827 139.459 77.57 139.482 77.4566C140.094 74.7253 140.705 71.7854 141.316 68.6373C141.929 65.4771 142.495 62.224 143.014 58.8781C143.534 55.5192 143.936 52.2287 144.221 49.0068C144.506 45.7779 144.625 42.706 144.578 39.7924C144.577 36.8524 144.312 34.2271 143.764 31.9324C143.212 29.6259 142.335 27.6819 141.066 26.1881C139.723 24.5468 137.875 23.75 135.695 23.75C134.126 23.75 132.605 24.2161 131.152 25.074C129.658 25.9081 128.357 27.1531 127.23 28.7413C126.076 30.3668 125.193 32.36 124.55 34.6797C123.846 37.0515 123.508 39.7751 123.508 42.8281C123.508 47.7343 123.673 52.5943 124.003 57.4079C124.285 62.1993 124.637 66.9675 125.06 71.7123C125.434 76.3901 125.785 81.0679 126.113 85.7457C126.392 90.4009 126.531 95.0559 126.531 99.7109C126.531 103.996 126.415 108.282 126.182 112.567C125.954 116.768 125.269 120.776 124.133 124.596L123.707 126.027L125.136 126.459L130.48 128.076L131.516 128.39L132.14 127.505C133.673 125.329 134.885 122.98 135.774 120.46L135.777 120.452C136.647 117.939 137.3 115.376 137.736 112.765C138.214 110.132 138.526 107.519 138.67 104.927ZM136.88 55.0794L136.879 55.0888L136.877 55.0982C136.599 57.4693 136.28 59.8405 135.923 62.2118C135.666 59.0619 135.409 56.0291 135.151 53.1134C134.918 49.9373 134.708 46.9946 134.521 44.2853C134.381 41.541 134.312 39.2288 134.312 37.3438C134.312 34.6032 134.68 33.0778 135.124 32.3975C135.683 31.54 136.077 31.4609 136.258 31.4609C136.335 31.4609 136.401 31.4728 136.515 31.5832C136.664 31.7275 136.88 32.038 137.094 32.6422L137.097 32.6496L137.099 32.657C137.54 33.8582 137.832 35.56 137.923 37.8256L137.924 37.8405L137.925 37.8555C138.06 40.1142 138.016 42.7387 137.786 45.7365L137.785 45.748L137.784 45.7594C137.599 48.77 137.298 51.8766 136.88 55.0794Z" stroke="white" stroke-width="3"/>
<path d="M96.5122 118.212L96.5148 118.21C100.331 115.36 103.732 111.982 106.718 108.081C109.749 104.183 112.295 99.8815 114.358 95.1808C116.418 90.4857 117.996 85.4868 119.094 80.1872C120.194 74.8791 120.742 69.3862 120.742 63.7109C120.742 54.8687 119.26 46.6863 116.277 39.1804C113.298 31.685 109.061 25.2039 103.564 19.755C98.0649 14.3044 91.444 10.0722 83.7235 7.05042C76.0234 3.97126 67.4417 2.44531 58 2.44531C51.1191 2.44531 44.7337 3.35314 38.8545 5.18389C33.0525 6.95845 28.0014 9.39227 23.7237 12.5024C19.4497 15.5631 16.0889 19.1586 13.675 23.2955C11.2483 27.4074 10.0234 31.7933 10.0234 36.4297C10.0234 39.1672 10.5817 41.7675 11.7013 44.2147C12.764 46.6396 14.2571 48.788 16.1723 50.6528L16.1797 50.66L16.1871 50.6671C18.1093 52.4881 20.3536 53.9222 22.9054 54.973L22.9054 54.973L22.9149 54.9768C25.543 56.0382 28.3602 56.5625 31.3516 56.5625C33.3687 56.5625 35.262 56.3659 37.0253 55.9633C38.7532 55.579 40.2034 55.0813 41.1683 54.3737L41.9425 53.8059L41.7512 52.8651L40.9074 48.7167L40.4467 46.4514L38.5656 47.795C38.356 47.9447 38.069 48.1021 37.6851 48.2557L37.6588 48.2662L37.633 48.2777C37.3337 48.4107 36.9329 48.5436 36.4134 48.6661C35.9128 48.739 35.2397 48.7812 34.375 48.7812C31.6905 48.7812 29.6981 48.3751 28.2958 47.674C26.8202 46.9362 25.7211 45.9811 24.9452 44.823C24.1745 43.6016 23.6346 42.203 23.3385 40.6091C23.0713 38.8647 22.9375 37.0968 22.9375 35.3047C22.9375 33.8309 23.1106 32.1767 23.4689 30.3359C23.8582 28.5703 24.5303 26.7858 25.4984 24.9805C26.4984 23.1559 27.8591 21.3716 29.5997 19.631C31.2881 17.9426 33.4875 16.4146 36.2323 15.0648L36.2323 15.0648L36.2411 15.0604C39.0062 13.6778 42.3468 12.5657 46.2839 11.7416L46.292 11.7399L46.3002 11.7381C50.1978 10.877 54.8189 10.4375 60.1797 10.4375C67.5768 10.4375 74.0131 11.5633 79.5191 13.7747L79.5259 13.7775L79.5328 13.7802C85.0943 15.9505 89.6971 19.1011 93.3724 23.2246L93.3781 23.231L93.3839 23.2374C97.1132 27.3261 99.9422 32.3343 101.853 38.2939C103.766 44.2604 104.734 51.0395 104.734 58.6484C104.734 63.4801 104.525 68.3597 104.107 73.2872L104.107 73.2872L104.106 73.3012C103.735 78.2107 103.087 82.9048 102.164 87.3846C101.242 91.8566 100.022 96.0413 98.5079 99.9415L98.5045 99.9504C97.0478 103.774 95.2606 107.092 93.1529 109.918C91.0672 112.669 88.6203 114.824 85.8115 116.404C83.0613 117.951 79.8981 118.742 76.2812 118.742C74.2916 118.742 72.1789 118.607 69.9417 118.334C67.7201 118.009 65.3801 117.615 62.921 117.151C60.4956 116.685 57.9756 116.172 55.3612 115.611C53.6883 115.253 51.9872 114.895 50.2577 114.536C50.9771 113.884 51.6848 113.21 52.381 112.514C53.8732 111.022 55.1867 109.336 56.3227 107.461C57.5267 105.552 58.4691 103.41 59.1588 101.045L59.161 101.037C59.8644 98.5753 60.2031 95.7593 60.2031 92.6094V53.0234C60.2031 49.9428 60.2264 47.1917 60.2729 44.7693C60.3653 42.3304 60.549 40.1872 60.8201 38.3344L60.8209 38.3293C61.0893 36.45 61.485 34.8884 61.9896 33.6234C62.527 32.3458 63.234 31.3084 64.0982 30.4835L65.2804 29.355L64.0549 28.2737L60.469 25.1096L59.3761 24.1453L58.3808 25.21C56.3585 27.3734 54.6121 29.3083 53.1436 31.0134C51.631 32.7221 50.3518 34.4913 49.3127 36.3221L49.3126 36.3221L49.306 36.334C48.3046 38.1365 47.5119 40.1239 46.9211 42.289C46.3284 44.4141 45.895 46.9657 45.6085 49.9258C45.3227 52.8798 45.1338 56.4107 45.0395 60.5124L45.0393 60.5209L45.0392 60.5294C44.9922 64.5683 44.9688 69.4495 44.9688 75.1719C44.9688 81.0745 44.9453 86.1076 44.8985 90.272C44.8519 94.3756 44.7121 97.8303 44.4816 100.643C44.2517 103.447 43.8883 105.685 43.4092 107.385C42.9458 108.984 42.2935 110.249 41.4845 111.224L40.1589 112.599C37.5765 112.224 34.9749 111.907 32.354 111.649C29.4404 111.315 26.4811 111.148 23.4766 111.148C19.6452 111.148 16.407 111.337 13.78 111.725C11.1367 112.062 8.90617 112.601 7.13824 113.378C5.4053 114.094 3.99659 115.059 3.11722 116.366C2.23287 117.613 1.79688 119.039 1.79688 120.594C1.79688 121.982 2.20452 123.251 3.03894 124.338C3.85669 125.402 5.02161 126.211 6.42105 126.819C9.14292 128.022 12.9519 128.562 17.7109 128.562C19.3415 128.562 21.0555 128.415 22.8508 128.125C24.6945 127.881 26.5566 127.494 28.4368 126.964C30.3241 126.479 32.207 125.851 34.0854 125.081C35.803 124.42 37.4795 123.64 39.1145 122.741C44.0112 123.778 48.9513 124.749 53.9348 125.655C59.1765 126.609 64.3757 127.086 69.5312 127.086C74.6518 127.086 79.4808 126.313 84.0079 124.756C88.5582 123.206 92.7284 121.025 96.5122 118.212ZM10.481 119.588L10.4924 119.585L10.5037 119.582C11.0933 119.425 11.7634 119.321 12.5207 119.279C13.3401 119.233 14.1091 119.211 14.8281 119.211C17.6617 119.211 20.5694 119.417 23.5521 119.83C24.8914 120.015 26.2354 120.214 27.5841 120.427C26.8652 120.653 26.131 120.855 25.3815 121.032L25.3755 121.034C22.968 121.613 20.4146 121.906 17.7109 121.906C14.064 121.906 11.6577 121.667 10.3413 121.268C9.67597 121.066 9.3315 120.857 9.17502 120.714C9.10532 120.651 9.08867 120.615 9.08775 120.613C9.08743 120.613 9.08725 120.612 9.08715 120.612C9.08708 120.612 9.08683 120.61 9.08657 120.608C9.0864 120.606 9.08619 120.604 9.08606 120.601C9.08599 120.599 9.08594 120.596 9.08594 120.594C9.08594 120.26 9.17566 120.188 9.22562 120.148L9.22611 120.148C9.4853 119.941 9.88232 119.738 10.481 119.588Z" stroke="white" stroke-width="3"/>
</svg>
