<svg width="152" height="56" viewBox="0 0 152 56" fill="none" xmlns="http://www.w3.org/2000/svg">
<path d="M24.8933 35.8283C24.0384 36.1705 23.1013 36.2519 22.2002 36.0622C21.2991 35.8724 20.4743 35.42 19.83 34.7621C19.1857 34.1042 18.7507 33.2702 18.5798 32.3653C18.4089 31.4605 18.5098 30.5252 18.8698 29.6777L21.9253 32.7332L24.3987 30.2587L21.3443 27.2032C22.2059 26.8356 23.1583 26.7367 24.077 26.9194C24.9957 27.102 25.8379 27.5577 26.4934 28.2268C27.1489 28.8959 27.5872 29.7473 27.7509 30.6695C27.9146 31.5918 27.7961 32.542 27.411 33.3958L29.6662 35.651C30.7532 34.0909 31.3351 32.2348 31.3333 30.3333C31.3166 27.3383 30.6263 24.3855 29.3136 21.6935C28.0009 19.0014 26.0994 16.6392 23.75 14.7817C24.2484 16.6097 24.538 18.4884 24.6133 20.3817C24.6548 20.9324 24.5831 21.4858 24.4027 22.0078C24.2223 22.5298 23.937 23.0094 23.5643 23.417C23.1917 23.8246 22.7395 24.1517 22.2358 24.3781C21.732 24.6044 21.1872 24.7253 20.635 24.7333C20.0694 24.7319 19.5097 24.6176 18.9888 24.3969C18.468 24.1763 17.9965 23.8538 17.602 23.4484C17.2075 23.0431 16.898 22.563 16.6915 22.0363C16.4851 21.5097 16.386 20.9471 16.4 20.3817L16.435 19.9617C13.9935 22.8654 12.6585 26.5396 12.6667 30.3333C12.667 32.0216 13.1252 33.6782 13.9926 35.1266C14.8599 36.5751 16.1039 37.7611 17.592 38.5585C19.0802 39.3558 20.7567 39.7346 22.4431 39.6544C24.1295 39.5743 25.7625 39.0382 27.1683 38.1033L24.8933 35.8283Z" fill="white"/>
<path d="M55.125 39V38.0156L49.1719 29.4688H46.9375V36.7969C46.9375 36.9531 46.9948 37.1042 47.1094 37.25C47.2344 37.3958 47.4115 37.4792 47.6406 37.5L49.4688 37.625V39H41.3438V37.625L43.0312 37.5C43.2604 37.4792 43.4271 37.3958 43.5312 37.25C43.6458 37.1042 43.7031 36.9531 43.7031 36.7969V19.7344C43.7031 19.5781 43.6458 19.4271 43.5312 19.2812C43.4271 19.1354 43.2604 19.0521 43.0312 19.0312L41.3438 18.9062V17.5312H49.4688V18.9062L47.6406 19.0312C47.4115 19.0521 47.2344 19.1354 47.1094 19.2812C46.9948 19.4271 46.9375 19.5781 46.9375 19.7344V28.125H48.0938L55.0625 19.6094C55.1042 19.5677 55.125 19.5104 55.125 19.4375C55.125 19.3542 55.0938 19.276 55.0312 19.2031C54.9688 19.1198 54.8958 19.0729 54.8125 19.0625L53.1719 18.9062V17.5312H59.9531V18.9062C59.5781 18.9375 59.2396 18.974 58.9375 19.0156C58.6771 19.0469 58.4323 19.0781 58.2031 19.1094C57.974 19.1302 57.8333 19.1458 57.7812 19.1562L51.25 26.9688L58.4219 37.4688L60.7344 37.625V39H55.125ZM71.1875 39V37.75L72.5312 37.6562C72.7188 37.6354 72.875 37.5625 73 37.4375C73.1354 37.3125 73.2031 37.151 73.2031 36.9531V28.625C73.2031 27.6146 72.9688 26.849 72.5 26.3281C72.0312 25.7969 71.2396 25.5312 70.125 25.5312C69.5104 25.5312 68.9062 25.6198 68.3125 25.7969C67.7188 25.9635 67.151 26.1823 66.6094 26.4531V36.9531C66.6094 37.151 66.6719 37.3125 66.7969 37.4375C66.9219 37.5625 67.0833 37.6354 67.2812 37.6562L68.625 37.75V39H61.3906V37.75L62.9531 37.6562C63.151 37.6354 63.3125 37.5625 63.4375 37.4375C63.5625 37.3125 63.625 37.151 63.625 36.9531V25.8438H61.3906V24.7969L65.2969 23.5781H66.6094V25.1719C67.0573 24.9219 67.5104 24.6771 67.9688 24.4375C68.4375 24.1979 68.901 23.9844 69.3594 23.7969C69.8177 23.6094 70.2604 23.4635 70.6875 23.3594C71.1146 23.2448 71.5156 23.1875 71.8906 23.1875C73.2865 23.1875 74.349 23.6198 75.0781 24.4844C75.8073 25.349 76.1719 26.5625 76.1719 28.125V36.9531C76.1719 37.151 76.2344 37.3125 76.3594 37.4375C76.4948 37.5625 76.6562 37.6354 76.8438 37.6562L78.25 37.75V39H71.1875ZM85.875 18.2969C85.875 18.5677 85.8229 18.8281 85.7188 19.0781C85.625 19.3177 85.4896 19.526 85.3125 19.7031C85.1354 19.8802 84.9271 20.0208 84.6875 20.125C84.4583 20.2292 84.2083 20.2812 83.9375 20.2812C83.6667 20.2812 83.4062 20.2292 83.1562 20.125C82.9167 20.0208 82.7083 19.8802 82.5312 19.7031C82.3542 19.526 82.2135 19.3177 82.1094 19.0781C82.0052 18.8281 81.9531 18.5677 81.9531 18.2969C81.9531 18.026 82.0052 17.7708 82.1094 17.5312C82.2135 17.2917 82.3542 17.0833 82.5312 16.9062C82.7083 16.7292 82.9167 16.5938 83.1562 16.5C83.4062 16.3958 83.6667 16.3438 83.9375 16.3438C84.2083 16.3438 84.4583 16.3958 84.6875 16.5C84.9271 16.5938 85.1354 16.7292 85.3125 16.9062C85.4896 17.0833 85.625 17.2917 85.7188 17.5312C85.8229 17.7708 85.875 18.026 85.875 18.2969ZM80 39V37.75L81.5625 37.6562C81.7604 37.6354 81.9219 37.5625 82.0469 37.4375C82.1719 37.3125 82.2344 37.151 82.2344 36.9531V25.5312H80.0312V24.4062L83.9375 23.1875H85.2031V36.9531C85.2031 37.151 85.2656 37.3125 85.3906 37.4375C85.526 37.5625 85.6875 37.6354 85.875 37.6562L87.5156 37.75V39H80ZM101.688 25.7188C101.927 26.1042 102.13 26.526 102.297 26.9844C102.464 27.4323 102.547 27.9688 102.547 28.5938C102.547 29.3958 102.375 30.1094 102.031 30.7344C101.688 31.3594 101.224 31.8906 100.641 32.3281C100.068 32.7656 99.401 33.099 98.6406 33.3281C97.8906 33.5573 97.099 33.6719 96.2656 33.6719H95.9531C95.849 33.6719 95.7448 33.6667 95.6406 33.6562C95.5052 33.875 95.4115 34.1094 95.3594 34.3594C95.3177 34.6094 95.2969 34.8438 95.2969 35.0625C95.2969 35.2604 95.3073 35.4271 95.3281 35.5625C95.349 35.6979 95.3646 35.776 95.375 35.7969L95.8281 35.8438C96.3281 35.8958 96.875 35.9583 97.4688 36.0312C98.0729 36.0938 98.6771 36.1927 99.2812 36.3281C99.8958 36.4531 100.49 36.6198 101.062 36.8281C101.635 37.026 102.141 37.2812 102.578 37.5938C103.026 37.8958 103.38 38.2708 103.641 38.7188C103.911 39.1562 104.047 39.6771 104.047 40.2812C104.047 41.0417 103.828 41.7812 103.391 42.5C102.964 43.2292 102.375 43.875 101.625 44.4375C100.875 45.0104 99.9948 45.4688 98.9844 45.8125C97.974 46.1562 96.8906 46.3281 95.7344 46.3281C94.776 46.3281 93.9219 46.2135 93.1719 45.9844C92.4323 45.7552 91.8073 45.4375 91.2969 45.0312C90.7865 44.625 90.3958 44.1406 90.125 43.5781C89.8542 43.026 89.7188 42.4271 89.7188 41.7812C89.7188 41.3125 89.7865 40.8646 89.9219 40.4375C90.0573 40.0208 90.2656 39.6406 90.5469 39.2969C90.8281 38.9635 91.1771 38.6771 91.5938 38.4375C92.0208 38.1875 92.526 38.0104 93.1094 37.9062C93.0469 37.7396 92.9948 37.6042 92.9531 37.5C92.9115 37.3854 92.875 37.2812 92.8438 37.1875C92.8229 37.0833 92.8073 36.9792 92.7969 36.875C92.7865 36.7604 92.7812 36.6146 92.7812 36.4375C92.7812 36.0208 92.9062 35.5625 93.1562 35.0625C93.4167 34.5521 93.8281 34.0104 94.3906 33.4375C93.8594 33.3125 93.3542 33.1146 92.875 32.8438C92.3958 32.5729 91.974 32.2344 91.6094 31.8281C91.2448 31.4115 90.9531 30.9375 90.7344 30.4062C90.526 29.8646 90.4219 29.2708 90.4219 28.625C90.4219 27.7812 90.5781 27.026 90.8906 26.3594C91.2031 25.6823 91.6406 25.1094 92.2031 24.6406C92.7656 24.1719 93.4375 23.8125 94.2188 23.5625C95.0104 23.3125 95.8854 23.1875 96.8438 23.1875C97.2188 23.1875 97.5833 23.2188 97.9375 23.2812C98.3021 23.3438 98.6406 23.4271 98.9531 23.5312C99.276 23.625 99.5729 23.7292 99.8438 23.8438C100.115 23.9583 100.354 24.0625 100.562 24.1562H104.875V25.7188H101.688ZM101.297 41.1406C101.297 40.7031 101.188 40.3281 100.969 40.0156C100.75 39.7135 100.458 39.4635 100.094 39.2656C99.7396 39.0677 99.3333 38.9115 98.875 38.7969C98.4271 38.6719 97.9688 38.5729 97.5 38.5C97.0417 38.4167 96.5938 38.3542 96.1562 38.3125C95.7188 38.2604 95.3438 38.2031 95.0312 38.1406C94.5625 38.3073 94.1719 38.5104 93.8594 38.75C93.5469 38.9792 93.2969 39.2292 93.1094 39.5C92.9219 39.7708 92.7865 40.0469 92.7031 40.3281C92.6302 40.6094 92.5938 40.8802 92.5938 41.1406C92.5938 41.526 92.6771 41.9375 92.8438 42.375C93.0104 42.8125 93.2656 43.2135 93.6094 43.5781C93.9531 43.9427 94.3854 44.2448 94.9062 44.4844C95.4375 44.7344 96.0625 44.8594 96.7812 44.8594C97.5417 44.8594 98.2031 44.7344 98.7656 44.4844C99.3385 44.2448 99.8125 43.9427 100.188 43.5781C100.562 43.2135 100.839 42.8125 101.016 42.375C101.203 41.9375 101.297 41.526 101.297 41.1406ZM99.5 28.4062C99.5 27.9062 99.4323 27.4219 99.2969 26.9531C99.1719 26.474 98.9844 26.0573 98.7344 25.7031C98.4844 25.3385 98.1719 25.0469 97.7969 24.8281C97.4323 24.6094 97.0104 24.5 96.5312 24.5C96.0833 24.5 95.6719 24.5885 95.2969 24.7656C94.9219 24.9427 94.599 25.2031 94.3281 25.5469C94.0677 25.8802 93.8594 26.2917 93.7031 26.7812C93.5573 27.2708 93.4844 27.8229 93.4844 28.4375C93.4844 28.9688 93.5469 29.474 93.6719 29.9531C93.8073 30.4219 94 30.8333 94.25 31.1875C94.5104 31.5417 94.8281 31.8229 95.2031 32.0312C95.5885 32.2396 96.0312 32.3438 96.5312 32.3438C97.0104 32.3438 97.4323 32.2396 97.7969 32.0312C98.1719 31.8229 98.4844 31.5417 98.7344 31.1875C98.9844 30.8333 99.1719 30.4167 99.2969 29.9375C99.4323 29.4583 99.5 28.9479 99.5 28.4062ZM115.938 39V37.75L117.25 37.6562C117.438 37.6354 117.599 37.5625 117.734 37.4375C117.88 37.3125 117.953 37.151 117.953 36.9531V28.7031C117.953 28.2448 117.901 27.8229 117.797 27.4375C117.703 27.0521 117.531 26.7188 117.281 26.4375C117.042 26.1562 116.719 25.9375 116.312 25.7812C115.906 25.6146 115.396 25.5312 114.781 25.5312C114.5 25.5312 114.203 25.5573 113.891 25.6094C113.578 25.651 113.266 25.7135 112.953 25.7969C112.651 25.8802 112.354 25.9792 112.062 26.0938C111.781 26.2083 111.526 26.3281 111.297 26.4531V36.9531C111.297 37.151 111.354 37.3125 111.469 37.4375C111.583 37.5625 111.74 37.6354 111.938 37.6562L113.312 37.75V39H106.109V37.75L107.641 37.6562C107.839 37.6354 108 37.5625 108.125 37.4375C108.25 37.3125 108.312 37.151 108.312 36.9531V17.7188H105.922V16.6562L110.016 15.4219H111.297V25.1719C111.589 24.9948 111.948 24.7917 112.375 24.5625C112.802 24.3333 113.255 24.1198 113.734 23.9219C114.224 23.7135 114.714 23.5417 115.203 23.4062C115.703 23.2604 116.161 23.1875 116.578 23.1875C117.193 23.1875 117.76 23.2865 118.281 23.4844C118.812 23.6823 119.271 23.9792 119.656 24.375C120.052 24.7708 120.359 25.276 120.578 25.8906C120.807 26.4948 120.922 27.2083 120.922 28.0312V36.9531C120.922 37.151 120.99 37.3125 121.125 37.4375C121.271 37.5625 121.438 37.6354 121.625 37.6562L123.062 37.75V39H115.938ZM134.469 38.3281C134.073 38.526 133.641 38.7031 133.172 38.8594C132.776 38.9948 132.318 39.1146 131.797 39.2188C131.276 39.3333 130.729 39.3906 130.156 39.3906C128.948 39.3906 128.073 39.1094 127.531 38.5469C126.99 37.9844 126.719 37.0677 126.719 35.7969V25.1719H124.672V24.125L126.859 23.0938L128.297 19.7031H129.703V23.5781H134.219V25.1719H129.703V34.1094C129.703 34.7448 129.755 35.2865 129.859 35.7344C129.974 36.1719 130.135 36.5312 130.344 36.8125C130.562 37.0833 130.828 37.2812 131.141 37.4062C131.464 37.5312 131.839 37.5938 132.266 37.5938C132.578 37.5938 132.865 37.5677 133.125 37.5156C133.396 37.4635 133.63 37.401 133.828 37.3281C134.057 37.2448 134.271 37.151 134.469 37.0469V38.3281Z" fill="white"/>
<path d="M8 54C37.5118 47.2084 107.228 37.7001 150 54" stroke="#EB771E" stroke-width="3" stroke-linecap="round"/>
</svg>
